<svg xmlns="http://www.w3.org/2000/svg" xmlns:xlink="http://www.w3.org/1999/xlink" contentStyleType="text/css" height="336px" preserveAspectRatio="none" style="width:181px;height:336px;background:#FFFFFF;" version="1.1" viewBox="0 0 181 336" width="181px" zoomAndPan="magnify"><defs/><g><rect fill="#F1F1F1" height="34.1328" rx="12.5" ry="12.5" style="stroke:#181818;stroke-width:0.5;" width="150.2598" x="12.5498" y="11"/><text fill="#000000" font-family="sans-serif" font-size="12" lengthAdjust="spacing" textLength="130.2598" x="22.5498" y="32.6016">Listen to Upload event</text><rect fill="#F1F1F1" height="62.3984" rx="12.5" ry="12.5" style="stroke:#181818;stroke-width:0.5;" width="133.7949" x="20.7822" y="86.4082"/><text fill="#000000" font-family="sans-serif" font-size="12" lengthAdjust="spacing" textLength="109.998" x="30.7822" y="108.0098">Fetch Repo/Files +</text><text fill="#000000" font-family="sans-serif" font-size="12" lengthAdjust="spacing" textLength="59.1504" x="34.5791" y="122.1426">Dockerfile</text><text fill="#000000" font-family="sans-serif" font-size="12" lengthAdjust="spacing" textLength="107.4023" x="34.5791" y="136.2754">&amp; Store in local dir</text><rect fill="#F1F1F1" height="34.1328" rx="12.5" ry="12.5" style="stroke:#181818;stroke-width:0.5;" width="133.0039" x="21.1777" y="168.8066"/><text fill="#000000" font-family="sans-serif" font-size="12" lengthAdjust="spacing" textLength="113.0039" x="31.1777" y="190.4082">Build Docker Image</text><rect fill="#F1F1F1" height="34.1328" rx="12.5" ry="12.5" style="stroke:#181818;stroke-width:0.5;" width="153.3594" x="11" y="222.9395"/><text fill="#000000" font-family="sans-serif" font-size="12" lengthAdjust="spacing" textLength="133.3594" x="21" y="244.541">Push Image to Registry</text><rect fill="#F1F1F1" height="48.2656" rx="12.5" ry="12.5" style="stroke:#181818;stroke-width:0.5;" width="101.0645" x="37.1475" y="277.0723"/><text fill="#000000" font-family="sans-serif" font-size="12" lengthAdjust="spacing" textLength="77.2676" x="47.1475" y="298.6738">Publish Event</text><text fill="#000000" font-family="sans-serif" font-size="12" lengthAdjust="spacing" textLength="65.0449" x="50.9443" y="312.8066">to Pub/Sub</text><line style="stroke:#181818;stroke-width:1;" x1="87.6797" x2="87.6797" y1="45.1328" y2="86.4082"/><polygon fill="#181818" points="83.6797,76.4082,87.6797,86.4082,91.6797,76.4082,87.6797,80.4082" style="stroke:#181818;stroke-width:1;"/><text fill="#000000" font-family="sans-serif" font-size="11" lengthAdjust="spacing" textLength="78.2998" x="91.6797" y="66.5879">Event detected</text><line style="stroke:#181818;stroke-width:1;" x1="87.6797" x2="87.6797" y1="148.8066" y2="168.8066"/><polygon fill="#181818" points="83.6797,158.8066,87.6797,168.8066,91.6797,158.8066,87.6797,162.8066" style="stroke:#181818;stroke-width:1;"/><line style="stroke:#181818;stroke-width:1;" x1="87.6797" x2="87.6797" y1="202.9395" y2="222.9395"/><polygon fill="#181818" points="83.6797,212.9395,87.6797,222.9395,91.6797,212.9395,87.6797,216.9395" style="stroke:#181818;stroke-width:1;"/><line style="stroke:#181818;stroke-width:1;" x1="87.6797" x2="87.6797" y1="257.0723" y2="277.0723"/><polygon fill="#181818" points="83.6797,267.0723,87.6797,277.0723,91.6797,267.0723,87.6797,271.0723" style="stroke:#181818;stroke-width:1;"/><!--SRC=[BOun3u8m48LtViMRN8nXfuc3KH8J1mDnOu7s2Osr9UKmyTzRmEtUz-voNt6paz130XwZ2wq1F_IYiiCHbsM2eL0BZSgAag87L1n3Nbh72Niq7kUWNupF19QqGoqX4jR31Tqw61lJwMcsplnNSNstFHEypzEmXUL_nJwvnEzQTCwcRZDeLht4ydhkr0y0]--></g></svg>