<svg xmlns="http://www.w3.org/2000/svg" xmlns:xlink="http://www.w3.org/1999/xlink" contentStyleType="text/css" height="447px" preserveAspectRatio="none" style="width:770px;height:447px;background:#FFFFFF;" version="1.1" viewBox="0 0 770 447" width="770px" zoomAndPan="magnify"><defs/><g><g id="elem_Upload service"><ellipse cx="78.1665" cy="119.0233" fill="#F1F1F1" rx="72.1665" ry="16.8333" style="stroke:#181818;stroke-width:0.5;"/><text fill="#000000" font-family="sans-serif" font-size="14" lengthAdjust="spacing" textLength="99.0596" x="27.9583" y="122.4971">Upload service</text></g><g id="elem_Build service"><ellipse cx="154.173" cy="226.6686" fill="#F1F1F1" rx="66.893" ry="15.7786" style="stroke:#181818;stroke-width:0.5;"/><text fill="#000000" font-family="sans-serif" font-size="14" lengthAdjust="spacing" textLength="85.0049" x="108.6705" y="230.6862">Build service</text></g><g id="elem_Deploy service"><ellipse cx="345.1725" cy="328.0825" fill="#F1F1F1" rx="71.9125" ry="16.7825" style="stroke:#181818;stroke-width:0.5;"/><text fill="#000000" font-family="sans-serif" font-size="14" lengthAdjust="spacing" textLength="98.417" x="295.1606" y="331.5887">Deploy service</text></g><g id="elem_Infra Provisioning"><ellipse cx="345.1743" cy="423.3529" fill="#F1F1F1" rx="80.4143" ry="18.4829" style="stroke:#181818;stroke-width:0.5;"/><text fill="#000000" font-family="sans-serif" font-size="14" lengthAdjust="spacing" textLength="119.0547" x="285.647" y="426.6439">Infra Provisioning</text></g><g id="elem_Observability service"><ellipse cx="417.1731" cy="226.6686" fill="#F1F1F1" rx="89.5431" ry="20.3086" style="stroke:#181818;stroke-width:0.5;"/><text fill="#000000" font-family="sans-serif" font-size="14" lengthAdjust="spacing" textLength="140.1914" x="347.0774" y="229.9596">Observability service</text></g><g id="elem_Infra Provisioning service"><ellipse cx="430.1689" cy="119.0178" fill="#F1F1F1" rx="103.0889" ry="23.0178" style="stroke:#181818;stroke-width:0.5;"/><text fill="#000000" font-family="sans-serif" font-size="14" lengthAdjust="spacing" textLength="170.4131" x="344.9623" y="122.3088">Infra Provisioning service</text></g><g id="elem_Domain Name Management"><ellipse cx="653.1745" cy="226.6689" fill="#F1F1F1" rx="111.1445" ry="24.6289" style="stroke:#181818;stroke-width:0.5;"/><text fill="#000000" font-family="sans-serif" font-size="14" lengthAdjust="spacing" textLength="187.9609" x="559.1941" y="229.9599">Domain Name Management</text></g><g id="elem_Dashboard"><ellipse cx="238.1673" cy="21.0015" fill="#F1F1F1" rx="63.0073" ry="15.0015" style="stroke:#181818;stroke-width:0.5;"/><text fill="#000000" font-family="sans-serif" font-size="14" lengthAdjust="spacing" textLength="73.7256" x="198.3045" y="25.019">Dashboard</text></g><!--link Upload service to Build service--><g id="link_Upload service_Build service"><path d="M89.71,136.07 C104.33,156.39 125.8055,186.2498 139.9955,205.9698 " fill="none" id="Upload service-to-Build service" style="stroke:#181818;stroke-width:1;"/><polygon fill="#181818" points="143.5,210.84,141.4901,201.1984,140.5796,206.7815,134.9965,205.871,143.5,210.84" style="stroke:#181818;stroke-width:1;"/></g><!--link Build service to Deploy service--><g id="link_Build service_Deploy service"><path d="M180.72,241.49 C216.5,260.11 274.5873,290.3507 311.3373,309.4707 " fill="none" id="Build service-to-Deploy service" style="stroke:#181818;stroke-width:1;"/><polygon fill="#181818" points="316.66,312.24,310.5221,304.5376,312.2244,309.9323,306.8298,311.6346,316.66,312.24" style="stroke:#181818;stroke-width:1;"/></g><!--link Deploy service to Infra Provisioning--><g id="link_Deploy service_Infra Provisioning"><path d="M345.17,351.33 C345.17,367.82 345.17,381.29 345.17,398.38 " fill="none" id="Deploy service-Infra Provisioning" style="stroke:#181818;stroke-width:1;"/><polygon fill="#181818" points="345.17,345.33,341.17,354.33,345.17,350.33,349.17,354.33,345.17,345.33" style="stroke:#181818;stroke-width:1;"/><polygon fill="#181818" points="345.17,404.38,349.17,395.38,345.17,399.38,341.17,395.38,345.17,404.38" style="stroke:#181818;stroke-width:1;"/></g><!--link Observability service to Deploy service--><g id="link_Observability service_Deploy service"><path d="M399.7615,251.7 C386.2015,270.43 372.8304,288.8913 360.1504,306.3913 " fill="none" id="Observability service-Deploy service" style="stroke:#181818;stroke-width:1;"/><polygon fill="#181818" points="403.28,246.84,394.7622,251.7844,400.3479,250.89,401.2422,256.4757,403.28,246.84" style="stroke:#181818;stroke-width:1;"/><polygon fill="#181818" points="356.63,311.25,365.1498,306.309,359.5637,307.2011,358.6716,301.6151,356.63,311.25" style="stroke:#181818;stroke-width:1;"/></g><!--link Infra Provisioning service to Observability service--><g id="link_Infra Provisioning service_Observability service"><path d="M426.6759,148.3849 C424.3459,167.2849 422.5228,182.1449 420.3028,200.1849 " fill="none" id="Infra Provisioning service-Observability service" style="stroke:#181818;stroke-width:1;"/><polygon fill="#181818" points="427.41,142.43,422.3389,150.873,426.7982,147.3924,430.2788,151.8518,427.41,142.43" style="stroke:#181818;stroke-width:1;"/><polygon fill="#181818" points="419.57,206.14,424.6393,197.6959,420.1807,201.1774,416.6992,196.7188,419.57,206.14" style="stroke:#181818;stroke-width:1;"/></g><!--link Domain Name Management to Deploy service--><g id="link_Domain Name Management_Deploy service"><path d="M585.8701,249.3932 C524.7801,269.1132 444.3199,295.0768 391.7199,312.0568 " fill="none" id="Domain Name Management-Deploy service" style="stroke:#181818;stroke-width:1;"/><polygon fill="#181818" points="591.58,247.55,581.7864,246.5082,586.8218,249.086,584.244,254.1213,591.58,247.55" style="stroke:#181818;stroke-width:1;"/><polygon fill="#181818" points="386.01,313.9,395.8036,314.9417,390.7682,312.364,393.346,307.3286,386.01,313.9" style="stroke:#181818;stroke-width:1;"/></g><!--link Dashboard to Upload service--><g id="link_Dashboard_Upload service"><path d="M210.7747,38.4465 C181.2347,56.1665 139.4947,81.2225 108.5347,99.8025 " fill="none" id="Dashboard-Upload service" style="stroke:#181818;stroke-width:1;"/><polygon fill="#181818" points="215.92,35.36,206.1445,36.5595,211.6323,37.9321,210.2597,43.4199,215.92,35.36" style="stroke:#181818;stroke-width:1;"/><polygon fill="#181818" points="103.39,102.89,113.1653,101.6886,107.6772,100.3171,109.0487,94.829,103.39,102.89" style="stroke:#181818;stroke-width:1;"/></g><!--link Dashboard to Build service--><g id="link_Dashboard_Build service"><path d="M229.9723,41.8767 C214.6623,78.9967 178.3668,166.9829 162.6968,204.9929 " fill="none" id="Dashboard-Build service" style="stroke:#181818;stroke-width:1;"/><polygon fill="#181818" points="232.26,36.33,225.1306,43.125,230.3536,40.9523,232.5262,46.1753,232.26,36.33" style="stroke:#181818;stroke-width:1;"/><polygon fill="#181818" points="160.41,210.54,167.5383,203.7439,162.3157,205.9174,160.1422,200.6948,160.41,210.54" style="stroke:#181818;stroke-width:1;"/></g><!--link Dashboard to Deploy service--><g id="link_Dashboard_Deploy service"><path d="M243.5647,42.2424 C253.4247,78.7424 279.43,171.7 310.17,251.3 C318.31,272.39 326.8538,290.545 334.3738,305.705 " fill="none" id="Dashboard-Deploy service" style="stroke:#181818;stroke-width:1;"/><polygon fill="#181818" points="242,36.45,240.4855,46.1817,243.3039,41.277,248.2087,44.0954,242,36.45" style="stroke:#181818;stroke-width:1;"/><polygon fill="#181818" points="337.04,311.08,336.624,301.2399,334.8181,306.6008,329.4573,304.7949,337.04,311.08" style="stroke:#181818;stroke-width:1;"/></g><!--link Dashboard to Infra Provisioning service--><g id="link_Dashboard_Infra Provisioning service"><path d="M269.4259,37.6346 C301.5659,53.7146 346.0232,75.9473 383.9132,94.8873 " fill="none" id="Dashboard-Infra Provisioning service" style="stroke:#181818;stroke-width:1;"/><polygon fill="#181818" points="264.06,34.95,270.3191,42.5542,268.5316,37.1872,273.8986,35.3997,264.06,34.95" style="stroke:#181818;stroke-width:1;"/><polygon fill="#181818" points="389.28,97.57,383.0182,89.968,384.8076,95.3344,379.4413,97.1238,389.28,97.57" style="stroke:#181818;stroke-width:1;"/></g><!--SRC=[qmWjoCbFJ54eJYqgoqnErLJGrRLJq70gpSn1Y76XyI5gN5A1EYkH5A49ADY0bNdcfHKbAWGKvPTb5cVcvsNcfGEL-YU1L2KcPUPabc3em30OqmXqBTZD0pefFpSnCq_1Bp4tLS4tCIynFJKtDQy4fqKkYSKPIVc9HIam5MY1WqK5UaXXA21i2Hxl0G00]--></g></svg>